<svg xmlns="http://www.w3.org/2000/svg" xmlns:xlink="http://www.w3.org/1999/xlink" id="b8c64dc2-e86a-49bc-92bf-164106d9e7fb" width="887.9" height="569.7" x="0" style="enable-background:new 0 0 887.9 569.7" y="0" version="1.1" viewBox="0 0 887.9 569.7" xml:space="preserve"><style type="text/css">.st0{fill:#e6e6e6}.st1{fill:#fff}.st2{fill:#0074d9}.st3{fill:#ccc}.st4{fill:#ffb9b9}.st5{fill:#2f2e41}.st6{fill:#372f60}.st7{fill:#4f349b}.st8{fill:#3f3d56}</style><title>proud_coder</title><rect width="611.5" height="391.6" x="276.4" y=".3" class="st0"/><rect width="576.5" height="319.3" x="293.9" y="49.5" class="st1"/><rect width="611.5" height="26" x="276.2" class="st2"/><circle cx="295.5" cy="13.3" r="4.8" class="st1"/><circle cx="313.7" cy="13.3" r="4.8" class="st1"/><circle cx="332" cy="13.3" r="4.8" class="st1"/><path d="M707.3,79.4H519.6c-0.9-0.1-1.6-1-1.4-1.9c0.1-0.7,0.7-1.3,1.4-1.4h187.7c0.9,0.1,1.6,1,1.4,1.9	C708.6,78.7,708,79.3,707.3,79.4z" class="st3"/><path d="M577.2,97.5H457.9c-0.9-0.1-1.6-1-1.4-1.9c0.1-0.7,0.7-1.3,1.4-1.4h119.3c0.9,0.1,1.6,1,1.4,1.9	C578.6,96.9,578,97.4,577.2,97.5z" class="st3"/><path d="M707.3,97.9H587.9c-0.9-0.1-1.6-1-1.4-1.9c0.1-0.7,0.7-1.3,1.4-1.4h119.3c0.9,0.1,1.6,1,1.4,1.9	C708.6,97.2,708,97.8,707.3,97.9z" class="st3"/><path d="M577.5,115.7H458.2c-0.9-0.1-1.6-1-1.4-1.9c0.1-0.7,0.7-1.3,1.4-1.4h119.3c0.9,0.1,1.6,1,1.4,1.9	C578.8,115,578.3,115.6,577.5,115.7z" class="st3"/><path d="M577.8,133.9H458.5c-0.9-0.1-1.6-1-1.4-1.9c0.1-0.7,0.7-1.3,1.4-1.4h119.3c0.9,0.1,1.6,1,1.4,1.9	C579.1,133.2,578.5,133.8,577.8,133.9z" class="st3"/><path d="M632,115.7h-34.2c-0.9-0.1-1.6-1-1.4-1.9c0.1-0.7,0.7-1.3,1.4-1.4H632c0.9,0.1,1.6,1,1.4,1.9	C633.3,115,632.7,115.6,632,115.7L632,115.7z" class="st3"/><path d="M632,133.5h-34.2c-0.9-0.1-1.6-1-1.4-1.9c0.1-0.7,0.7-1.3,1.4-1.4H632c0.9,0.1,1.6,1,1.4,1.9	C633.3,132.9,632.7,133.4,632,133.5L632,133.5z" class="st3"/><path d="M689.3,133.5h-34.2c-0.9-0.1-1.6-1-1.4-1.9c0.1-0.7,0.7-1.3,1.4-1.4h34.2c0.9,0.1,1.6,1,1.4,1.9	C690.6,132.9,690.1,133.4,689.3,133.5z" class="st3"/><path d="M491.2,79.4H457c-0.9-0.1-1.6-1-1.4-1.9c0.1-0.7,0.7-1.3,1.4-1.4h34.2c0.9,0.1,1.6,1,1.4,1.9	C492.5,78.7,491.9,79.3,491.2,79.4z" class="st3"/><path d="M576.8,287.7H457.5c-0.9-0.1-1.6-1-1.4-1.9c0.1-0.7,0.7-1.3,1.4-1.4h119.3c0.9,0.1,1.6,1,1.4,1.9	C578.1,287,577.5,287.6,576.8,287.7L576.8,287.7z" class="st3"/><path d="M576.2,324H456.9c-0.9-0.1-1.6-1-1.4-1.9c0.1-0.7,0.7-1.3,1.4-1.4h119.3c0.9,0.1,1.6,1,1.4,1.9	C577.5,323.3,577,323.9,576.2,324z" class="st3"/><path d="M576.5,342.2H457.2c-0.9-0.1-1.6-1-1.4-1.9c0.1-0.7,0.7-1.3,1.4-1.4h119.3c0.9,0.1,1.6,1,1.4,1.9	C577.8,341.5,577.2,342.1,576.5,342.2L576.5,342.2z" class="st3"/><path d="M627.5,324.3h-34.2c-0.9-0.1-1.6-1-1.4-1.9c0.1-0.7,0.7-1.3,1.4-1.4h34.2c0.9,0.1,1.6,1,1.4,1.9	C628.8,323.7,628.2,324.2,627.5,324.3L627.5,324.3z" class="st3"/><path d="M627.5,342.2h-34.2c-0.9-0.1-1.6-1-1.4-1.9c0.1-0.7,0.7-1.3,1.4-1.4h34.2c0.9,0.1,1.6,1,1.4,1.9	C628.8,341.5,628.2,342.1,627.5,342.2L627.5,342.2z" class="st3"/><path d="M684.8,324.3h-34.2c-0.9-0.1-1.6-1-1.4-1.9c0.1-0.7,0.7-1.3,1.4-1.4h34.2c0.9,0.1,1.6,1,1.4,1.9	C686.2,323.7,685.6,324.2,684.8,324.3z" class="st3"/><path d="M707.4,305.8H519.7c-0.9-0.1-1.6-1-1.4-1.9c0.1-0.7,0.7-1.3,1.4-1.4h187.7c0.9,0.1,1.6,1,1.4,1.9	C708.7,305.2,708.2,305.7,707.4,305.8z" class="st3"/><path d="M491.3,305.8h-34.2c-0.9-0.1-1.6-1-1.4-1.9c0.1-0.7,0.7-1.3,1.4-1.4h34.2c0.9,0.1,1.6,1,1.4,1.9	C492.7,305.2,492.1,305.7,491.3,305.8z" class="st3"/><polygon points="548 163.2 501.6 209 548 254.7 558.4 244.3 523.3 209.3 558.7 173.9" class="st0"/><polygon points="616.3 163.2 662.7 209 616.3 254.7 605.9 244.3 640.9 209.3 605.6 173.9" class="st0"/><polygon points="548 163.2 501.6 209 548 254.7 558.4 244.3 523.3 209.3 558.7 173.9" class="st2"/><polygon points="616.3 163.2 662.7 209 616.3 254.7 605.9 244.3 640.9 209.3 605.6 173.9" class="st2"/><path d="M470.6,546c14.4,19.3,44.4,21.3,44.4,21.3s6.6-29.3-7.9-48.6s-44.4-21.3-44.4-21.3S456.2,526.7,470.6,546z" class="st0"/><path d="M544.1,553.3c-9.5,12.7-29.3,14.1-29.3,14.1s-4.3-19.3,5.2-32.1s29.3-14.1,29.3-14.1S553.6,540.6,544.1,553.3z" class="st0"/><polygon points="149.8 461 149.8 511.1 135.5 511.1 126 458.6" class="st4"/><polygon points="36.4 461 36.4 511.1 22.1 511.1 12.6 458.6" class="st4"/><path d="M112,91.5c0,0-23-16.5-25.9-8.6s17.3,22.3,17.3,22.3L112,91.5z" class="st4"/><path d="M30.4,112.7c0,28.6,12.3,29.5,32.4,29.5s40.3-0.9,40.3-29.5S86.7,60.9,66.7,60.9S30.4,84.1,30.4,112.7z" class="st5"/><path d="M79.6,112.3c0,0-2.9,21.6,10.8,23c13.7,1.4-44.6,5.8-44.6,5.8s15.1-13.7,7.2-24.5S79.6,112.3,79.6,112.3z" class="st4"/><path d="M152.3,497.8l5,42.4c0,0,25.2,30.9,9.3,28.8s-25.9,0.5-25.9-2.4s-0.4-13.2-2.5-13.2s-3.9,16.2-3.9,16.2	s-6.5-0.5-7.2-1.2s-1.4-41.9-1.4-41.9s-2.2-12.2,2.2-18s3.6-10.8,3.6-10.8H152.3z" class="st6"/><path d="M37.7,497.4l5,42.4c0,0,25.2,30.9,9.3,28.8s-25.9,0.5-25.9-2.4S25.8,553,23.7,553s-3.9,16.2-3.9,16.2	s-6.5-0.5-7.2-1.2s-1.4-41.9-1.4-41.9s-2.2-12.2,2.2-18s3.6-10.8,3.6-10.8H37.7z" class="st6"/><path d="M114.9,245.4c0,0,23,65.4,24.5,79.8s-1.4,63.3-1.4,63.3s20.9,84.5,16.5,85.2s-28.3,4.1-29.1,0.5	s-3.3-9.2-2.6-11.3s-2.2-10.1-2.2-14.4s-10.1-27-9.4-30.6s-12.2-56.8-14.4-61.1S89,322.3,89,322.3S56.6,410.8,55.9,413	s-3.6,5.8-2.2,6.5s-2.2,5.8-2.2,5.8s-7.5,29.8-7.5,31.3s1.4,17.7-1.4,18.4s-32.3,0.7-33.7-4.4s15.3-63.3,15.3-63.3s12.2-36.7,8.6-46	s3.6-65.4,6.5-69.8s3.6-30.2,3.6-30.2L114.9,245.4z" class="st7"/><circle cx="67" cy="101.2" r="23" class="st4"/><path d="M79.6,130.3c0,0-25.9,0.7-27.3-1.4s-37.4,5-37.4,19.4s20.9,70.5,20.9,70.5s7.9,40.3,5.8,44.6	s79.8-9.3,77.7-16.5s-14.4-23,1.4-36.7s22.3-28,22.3-28l-18.7-49.6c0,0-18.7-2.9-23,0S79.6,130.3,79.6,130.3z" class="st2"/><path d="M137.9,185.7l5-3.6c0,0,46.7-48.9,34.5-58.3s-30.2-18-38.8-18.7S122.8,98,122.8,98s-9.3-16.5-16.5-5.8	s-15.1,14.4-5,18c10.1,3.6,16.5,2.2,21.6,5.8s24.5,9.3,15.8,11.5c-4.9,1.2-9.8,2.9-14.4,5l-9.3,16.5L137.9,185.7z" class="st2"/><path d="M56.6,307.2c0,0,18.7,27.3,5,25.9C48,331.7,41.5,313,41.5,313L56.6,307.2z" class="st4"/><path d="M19.9,144.7l-5,3.6c0,0-16.5,90.6,0,114.4c16.5,23.7,18,22.3,18,22.3s2.9-2.2,4.3,12.2	c1.4,14.4-0.7,20.1,3.6,20.1s23.7-4.3,22.3-7.9s-10.8-24.5-11.5-29.5s-4.3-16.5-5.8-23c-1.4-6.5,6.5-10.1,2.9-23.7	S40.1,195,40.1,190S19.9,144.7,19.9,144.7z" class="st2"/><path d="M44.8,80.7c0,7.7,10.6,14,23.7,14s25.2,4.1,25.2-3.6S81.6,66.7,68.5,66.7S44.8,72.9,44.8,80.7z" class="st5"/><path d="M102.8,117.6c0,0,1,26.1-24.9,24.6s3.5-22.3,3.5-22.3L102.8,117.6z" class="st5"/><rect width="702.9" height="2.2" y="567.4" class="st8"/></svg>