<svg xmlns="http://www.w3.org/2000/svg" xmlns:xlink="http://www.w3.org/1999/xlink" id="be32c85c-9388-4a2b-a4e5-271574a5b9b2" width="888" height="651.9" x="0" style="enable-background:new 0 0 888 651.9" y="0" version="1.1" viewBox="0 0 888 651.9" xml:space="preserve"><style type="text/css">.st0{fill:#e6e6e6}.st1{fill:#2f2e41}.st2{fill:#ffb8b8}.st3{opacity:.1;enable-background:new}.st4{fill:#4f3d6b}.st5{fill:#fff}.st6{fill:#0074d9}</style><title>design_notes</title><ellipse cx="96.7" cy="631.8" class="st0" rx="96.3" ry="20"/><ellipse cx="55.1" cy="143.7" class="st1" rx="33.2" ry="31.1"/><path d="M151.8,337.5l8.4,11.8c0,0,40.4,8.4,25.2,21s-37-11.8-37-11.8l-11.8-15.1L151.8,337.5z" class="st2"/><path d="M108.1,203.8c0,0,10.9,0,13.5,15.1s5,65.6,5,65.6s35.3,46.2,29.4,52.1s-12.6,16.8-16.8,15.1	s-40.4-51.3-40.4-51.3L108.1,203.8z" class="st0"/><path d="M74.4,160.9c0,0,0.8,32.8,10.9,34.5S92,208,92,208s-32.8,19.3-54.7,0l-4.2-10.1c0,0,15.1-10.9,8.4-26.1	L74.4,160.9z" class="st2"/><path d="M130.8,362.7c0,0,49.6,92.5,31.1,121.1s-46.2,87.5-50.5,87.5S83.7,559.5,85.3,552s26.9-63.9,33.6-69	s3.4-18.5,2.5-19.3s-28.6-45.4-28.6-45.4s0.8,70.6-2.5,81.6s0.8,89.1-3.4,92.5s-23.5,9.3-26.9,4.2s-13.5-81.6-6.7-99.2L40.8,376.2	L130.8,362.7z" class="st1"/><path d="M85.4,587.2l21,38.7c0,0,30.3,21.9,9.3,25.2s-33.6-5-33.6-5l-18.5-13.5V594L85.4,587.2z" class="st1"/><path d="M113.9,565.4l-10.9,26c0,0-4.2,10.9,0,13.5s16,17.7,8.4,19.3c-1.5,0.3-3.1,0.5-4.6,0.5	c-12.7,0.2-25-4.8-34-13.8L66,604c0,0,23.4-53.8,23-53.4S113.9,565.4,113.9,565.4z" class="st1"/><circle cx="53.4" cy="152.5" r="28.6" class="st2"/><path d="M37,192.4l8.8,8.8c0,0,26.9,10.1,39.5,0c0,0-4.6-9.7-4.6-8.8s36.6,6.3,39.9,21.4s-2.5,41.2-2.5,41.2	s23.5,111,14.3,113.5s-95.9,23.5-95,7.6s-6.7-81.6-6.7-81.6L1.3,238.3c0,0,4.2-18.5,14.3-24.4S37,192.4,37,192.4z" class="st0"/><path d="M74.4,356.8l10.9,6.7c0,0,42,28.6,20.2,33.6S71.1,377,71.1,377l-8.4-10.1L74.4,356.8z" class="st2"/><path d="M12.2,233.2l-7.6,7.6c0,0-5,70.6,5,84.9s56.3,53,58.9,50.5S87,361,83.7,359.3s-48.1-48.4-48.1-48.4l3.5-65.1	L12.2,233.2z" class="st3"/><path d="M8.8,230.7l-7.6,7.6c0,0-5,70.6,5,84.9s56.3,53,58.9,50.5s18.5-15.1,15.1-16.8s-48.1-48.4-48.1-48.4l3.5-65.1	L8.8,230.7z" class="st0"/><path d="M65.2,111.9c0,0,9.7-3.5,23,4l-7.1,1.8c0,0,10.6,0.9,11.9,15h-4.9c0,0,3.1,12.4,0,15.9l-2-3.8l-5.7,11.5	l-1.3-5.7l-2.7,0.9l-1.8-9.3c0,0-4.4,6.6-8,7.1v-5.7c0,0-9.7,11-12.8,10.6l4.4-6.2l-6.2,1.3l2.7-4.4l-15.9,4.4l3.5-4.4l-11,3.5	l-5.3,2.2c0,0-7.5-17.2,3.1-29.2S55.3,106.8,65.2,111.9z" class="st4"/><rect width="643.9" height="412.4" x="221.9" y="69" class="st0"/><rect width="607" height="336.2" x="240.3" y="120.7" class="st5"/><rect width="643.9" height="27.4" x="221.6" y="68.6" class="st6"/><circle cx="241.9" cy="82.6" r="5.1" class="st5"/><circle cx="261.2" cy="82.6" r="5.1" class="st5"/><circle cx="280.4" cy="82.6" r="5.1" class="st5"/><path d="M329.4,155.6h88c18.8,0,34,15.2,34,34v198.5c0,18.8-15.2,34-34,34h-88c-18.8,0-34-15.2-34-34V189.6	C295.5,170.8,310.7,155.6,329.4,155.6z" class="st0"/><path d="M503.4,155.6h79.9c13.8,0,25,11.2,25,25v23.3c0,13.8-11.2,25-25,25h-79.9c-13.8,0-25-11.2-25-25v-23.3	C478.4,166.8,489.6,155.6,503.4,155.6z" class="st6"/><path d="M502.5,249.4h81.7c13.3,0,24.1,10.8,24.1,24.1v30.7c0,13.3-10.8,24.1-24.1,24.1h-81.7	c-13.3,0-24.1-10.8-24.1-24.1v-30.7C478.4,260.2,489.2,249.4,502.5,249.4z" class="st0"/><path d="M503.8,348.7h79.1c14.1,0,25.5,11.4,25.5,25.5v22.4c0,14.1-11.4,25.5-25.5,25.5h-79.1	c-14.1,0-25.5-11.4-25.5-25.5v-22.4C478.4,360.1,489.8,348.7,503.8,348.7z" class="st0"/><path d="M665.3,155.6h97.8c16.1,0,29.1,13,29.1,29.1v57.9c0,16.1-13,29.1-29.1,29.1h-97.8c-16.1,0-29.1-13-29.1-29.1	v-57.9C636.2,168.6,649.2,155.6,665.3,155.6z" class="st0"/><path d="M665.1,305.9h98.1c16,0,28.9,13,28.9,28.9v58.3c0,16-13,28.9-28.9,28.9h-98.1c-16,0-28.9-13-28.9-28.9v-58.3	C636.2,318.9,649.2,305.9,665.1,305.9z" class="st6"/></svg>